HIERARCHY
ROOT joint_Root
{
	OFFSET 0.0 0.0 0.0
	CHANNELS 6 Xposition Yposition Zposition Zrotation Xrotation Yrotation 
	JOINT Hips
	{
		OFFSET -0.726466 93.3139 -2.00062
		CHANNELS 6 Xposition Yposition Zposition Zrotation Xrotation Yrotation 
		JOINT Spine
		{
			OFFSET 15.7357 0.0 0.0
			CHANNELS 6 Xposition Yposition Zposition Zrotation Xrotation Yrotation 
			JOINT Chest
			{
				OFFSET 8.98455 -0.406207 0.0
				CHANNELS 6 Xposition Yposition Zposition Zrotation Xrotation Yrotation 
				JOINT Neck
				{
					OFFSET 16.3773 0.0 0.0
					CHANNELS 6 Xposition Yposition Zposition Zrotation Xrotation Yrotation 
					JOINT Head
					{
						OFFSET 6.45672 0.0 0.0
						CHANNELS 6 Xposition Yposition Zposition Zrotation Xrotation Yrotation 
						End Site
						{
							OFFSET 0.0 0.0 0.0
						}
					}
				}
				JOINT Shoulder_L
				{
					OFFSET 12.9942 -0.242716 4.98039
					CHANNELS 6 Xposition Yposition Zposition Zrotation Xrotation Yrotation 
					JOINT UpperArm_L
					{
						OFFSET 5.34809 0.0 0.0
						CHANNELS 6 Xposition Yposition Zposition Zrotation Xrotation Yrotation 
						JOINT LowerArm_L
						{
							OFFSET 24.3286 1.87007e-05 0.0
							CHANNELS 6 Xposition Yposition Zposition Zrotation Xrotation Yrotation 
							JOINT Hand_L
							{
								OFFSET 22.2916 0.0 0.0
								CHANNELS 6 Xposition Yposition Zposition Zrotation Xrotation Yrotation 
								End Site
								{
									OFFSET 0.0 0.0 0.0
								}
							}
						}
					}
				}
				JOINT Shoulder_R
				{
					OFFSET 12.9945 -0.242716 -4.98039
					CHANNELS 6 Xposition Yposition Zposition Zrotation Xrotation Yrotation 
					JOINT UpperArm_R
					{
						OFFSET -5.34813 0.0 0.0
						CHANNELS 6 Xposition Yposition Zposition Zrotation Xrotation Yrotation 
						JOINT LowerArm_R
						{
							OFFSET -24.3289 0.000322201 0.0
							CHANNELS 6 Xposition Yposition Zposition Zrotation Xrotation Yrotation 
							JOINT Hand_R
							{
								OFFSET -22.2915 -0.000108084 0.0
								CHANNELS 6 Xposition Yposition Zposition Zrotation Xrotation Yrotation 
								End Site
								{
									OFFSET 0.0 0.0 0.0
								}
							}
						}
					}
				}
			}
		}
		JOINT UpperLeg_L
		{
			OFFSET -2.19248 -6.46944 0.0
			CHANNELS 6 Xposition Yposition Zposition Zrotation Xrotation Yrotation 
			JOINT LowerLeg_L
			{
				OFFSET 39.0811 0.0 -1.23785e-05
				CHANNELS 6 Xposition Yposition Zposition Zrotation Xrotation Yrotation 
				JOINT Foot_L
				{
					OFFSET 40.9854 0.0 -1.26872e-05
					CHANNELS 6 Xposition Yposition Zposition Zrotation Xrotation Yrotation 
					JOINT Toes_L
					{
						OFFSET 11.7543 0.0 0.0
						CHANNELS 6 Xposition Yposition Zposition Zrotation Xrotation Yrotation 
						End Site
						{
							OFFSET 0.0 0.0 0.0
						}
					}
				}
			}
		}
		JOINT UpperLeg_R
		{
			OFFSET -2.19251 6.46944 0.0
			CHANNELS 6 Xposition Yposition Zposition Zrotation Xrotation Yrotation 
			JOINT LowerLeg_R
			{
				OFFSET -39.0811 -0.00228153 -0.0401928
				CHANNELS 6 Xposition Yposition Zposition Zrotation Xrotation Yrotation 
				JOINT Foot_R
				{
					OFFSET -40.9854 0.0 0.0
					CHANNELS 6 Xposition Yposition Zposition Zrotation Xrotation Yrotation 
					JOINT Toes_R
					{
						OFFSET -11.7543 0.0 0.0
						CHANNELS 6 Xposition Yposition Zposition Zrotation Xrotation Yrotation 
						End Site
						{
							OFFSET 0.0 0.0 0.0
						}
					}
				}
			}
		}
	}
}
MOTION
Frames:	8
Frame Time:	0.0333333
0.000000 0.000000 0.000000 0.000000 0.000000 -0.000000 -0.263842 92.362600 -0.866943 87.697100 -2.038340 4.940840 15.735700 0.000005 -0.000001 91.149100 85.768800 -91.016700 8.984550 -0.406207 -0.000000 0.694502 0.161492 0.263564 16.377300 -0.000001 -0.000001 2.087050 -3.108370 2.664960 6.456720 -0.000001 -0.000000 2.512110 -2.306870 -9.585570 12.994200 -0.242716 4.980390 -89.723500 -0.896459 -72.855700 5.348090 -0.000007 -0.000001 -70.653700 35.445900 -11.275400 24.328600 0.000019 0.000005 2.068990 6.215200 -18.453000 22.291600 -0.000001 0.000005 6.556670 5.441170 -4.326720 12.994500 -0.242716 -4.980390 92.183100 -5.149840 -66.989500 -5.348130 -0.000001 -0.000004 -32.901400 -50.649100 -95.143900 -24.328900 0.000322 -0.000009 26.580400 10.604100 -69.807200 -22.291500 -0.000108 -0.000004 46.947400 5.679680 -19.352900 -2.192480 -6.469440 -0.000000 -175.018000 -9.557410 -1.805690 39.081100 -0.000007 -0.000012 -0.104495 0.246758 22.951400 40.985400 -0.000006 -0.000013 0.094690 3.582050 -66.243800 11.754300 -0.000000 0.000003 -0.000056 -0.000625 -16.601800 -2.192510 6.469440 -0.000001 179.866000 14.216000 -179.204000 -39.081100 -0.002282 -0.040193 -0.005428 0.025252 19.113100 -40.985400 0.000008 0.000006 4.204700 7.805990 -65.508500 -11.754300 -0.000006 -0.000006 -0.008422 -0.091440 -20.297000
0.000000 0.000000 0.000000 0.000000 0.000000 -0.000000 -0.361486 92.358600 -0.889486 87.719800 -1.483410 5.078380 15.735700 0.000005 -0.000001 91.705000 85.725800 -91.731600 8.984550 -0.406207 -0.000000 0.778636 0.255875 -0.054823 16.377300 -0.000001 -0.000001 2.122000 -3.283110 2.839840 6.456720 -0.000001 -0.000000 2.745130 -2.729360 -8.832280 12.994200 -0.242716 4.980390 -89.689000 -1.010530 -72.891000 5.348090 -0.000007 -0.000001 -70.213300 35.478100 -12.233700 24.328600 0.000019 0.000005 2.040110 5.941980 -18.988300 22.291600 -0.000001 0.000005 6.460600 5.439960 -4.284360 12.994500 -0.242716 -4.980390 92.095700 -4.986950 -67.171400 -5.348130 -0.000001 -0.000004 -34.908900 -50.509700 -95.546700 -24.328900 0.000322 -0.000009 22.866000 10.491900 -66.643100 -22.291500 -0.000108 -0.000004 48.562000 5.677040 -18.625800 -2.192480 -6.469440 -0.000000 -174.971000 -9.279650 -1.784900 39.081100 -0.000007 -0.000012 -0.104085 0.245288 22.993400 40.985400 -0.000006 -0.000013 0.101665 3.894720 -66.201000 11.754300 -0.000000 0.000003 -0.000054 -0.000603 -16.600900 -2.192510 6.469440 -0.000001 179.854000 14.626700 -179.054000 -39.081100 -0.002282 -0.040193 -0.004260 0.021847 19.140200 -40.985400 0.000008 0.000006 4.280150 7.641430 -65.560500 -11.754300 -0.000006 -0.000006 -0.008082 -0.088698 -20.185000
0.000000 0.000000 0.000000 0.000000 0.000000 -0.000000 -0.450256 92.351900 -0.938381 87.710500 -0.812618 5.149480 15.735700 0.000005 -0.000001 92.561600 85.691600 -92.765400 8.984550 -0.406207 -0.000000 0.842967 0.397284 -0.410310 16.377300 -0.000001 -0.000001 2.104420 -3.213890 2.820030 6.456720 -0.000001 -0.000000 2.923120 -2.985300 -8.265700 12.994200 -0.242716 4.980390 -89.726900 -0.878591 -72.733900 5.348090 -0.000007 -0.000001 -69.220800 36.039000 -13.505500 24.328600 0.000019 0.000005 1.887020 5.237380 -19.846400 22.291600 -0.000001 0.000005 6.466310 5.445780 -4.489560 12.994500 -0.242716 -4.980390 91.993400 -4.812780 -67.468700 -5.348130 -0.000001 -0.000004 -40.945600 -50.075900 -98.114700 -24.328900 0.000322 -0.000009 18.098200 10.489400 -60.876100 -22.291500 -0.000108 -0.000004 46.185800 5.658280 -15.801200 -2.192480 -6.469440 -0.000000 -174.928000 -8.798620 -1.923580 39.081100 -0.000007 -0.000012 -0.104973 0.245987 23.110100 40.985400 -0.000006 -0.000013 0.087452 4.119180 -66.153200 11.754300 -0.000000 0.000003 -0.000045 -0.000511 -16.597400 -2.192510 6.469440 -0.000001 179.885000 15.188300 -178.991000 -39.081100 -0.002282 -0.040193 -0.000940 0.012245 19.196400 -40.985400 0.000008 0.000006 4.496620 7.474400 -65.644000 -11.754300 -0.000006 -0.000006 -0.008263 -0.090163 -20.244900
0.000000 0.000000 0.000000 0.000000 0.000000 -0.000000 -0.527944 92.358500 -0.953059 87.723800 -0.177195 5.201870 15.735700 0.000005 -0.000001 94.184800 85.671800 -94.609400 8.984550 -0.406207 -0.000000 0.869911 0.656997 -0.853354 16.377300 -0.000001 -0.000001 2.167770 -2.998150 2.628220 6.456720 -0.000001 -0.000000 2.882820 -3.010580 -7.859400 12.994200 -0.242716 4.980390 -89.774700 -0.714050 -72.487300 5.348090 -0.000007 -0.000001 -68.195100 36.481800 -14.564400 24.328600 0.000019 0.000005 1.862230 4.809020 -21.196800 22.291600 -0.000001 0.000005 6.528740 5.454790 -4.811600 12.994500 -0.242716 -4.980390 91.962300 -4.776790 -67.635500 -5.348130 -0.000001 -0.000004 -49.468200 -49.246800 -102.013000 -24.328900 0.000322 -0.000009 14.092100 10.720500 -53.457300 -22.291500 -0.000108 -0.000004 43.987500 5.622100 -12.732300 -2.192480 -6.469440 -0.000000 -174.923000 -8.402770 -1.974350 39.081100 -0.000007 -0.000012 -0.105071 0.246447 23.090600 40.985400 -0.000006 -0.000013 0.074834 4.291650 -66.072700 11.754300 -0.000000 0.000003 -0.000048 -0.000551 -16.599000 -2.192510 6.469440 -0.000001 179.894000 15.655200 -178.860000 -39.081100 -0.002282 -0.040193 0.003075 0.000715 19.122100 -40.985400 0.000008 0.000006 4.641930 7.283150 -65.674800 -11.754300 -0.000006 -0.000006 -0.008216 -0.089787 -20.229500
0.000000 0.000000 0.000000 0.000000 0.000000 -0.000000 -0.591263 92.361100 -0.972545 87.763700 0.565307 5.099080 15.735700 0.000005 -0.000001 95.016400 85.704100 -95.673500 8.984550 -0.406207 -0.000000 0.797762 0.790936 -1.318600 16.377300 -0.000001 -0.000001 2.226570 -2.729820 2.373330 6.456720 -0.000001 -0.000000 2.820780 -2.858170 -7.818680 12.994200 -0.242716 4.980390 -89.824500 -0.547610 -72.230400 5.348090 -0.000007 -0.000001 -67.434500 36.678600 -15.142000 24.328600 0.000019 0.000005 1.712530 4.068200 -22.851900 22.291600 -0.000001 0.000005 6.536280 5.460000 -5.000740 12.994500 -0.242716 -4.980390 92.027100 -4.977470 -67.807500 -5.348130 -0.000001 -0.000004 -59.196000 -48.129700 -106.595000 -24.328900 0.000322 -0.000009 10.412800 10.422200 -45.447000 -22.291500 -0.000108 -0.000004 42.283400 5.548800 -8.625060 -2.192480 -6.469440 -0.000000 -174.980000 -7.872390 -2.222440 39.081100 -0.000007 -0.000012 -0.105208 0.246731 23.093700 40.985400 -0.000006 -0.000013 0.081314 4.539970 -65.987600 11.754300 -0.000000 0.000003 -0.000054 -0.000609 -16.601200 -2.192510 6.469440 -0.000001 179.888000 16.194200 -178.919000 -39.081100 -0.002282 -0.040193 0.002154 0.003378 19.094100 -40.985400 0.000008 0.000006 4.647780 7.057970 -65.696100 -11.754300 -0.000006 -0.000006 -0.008333 -0.090727 -20.267900
0.000000 0.000000 0.000000 0.000000 0.000000 -0.000000 -0.652133 92.374400 -0.972406 87.801500 1.227770 5.046290 15.735700 0.000005 -0.000001 95.568100 85.726800 -96.447100 8.984550 -0.406207 -0.000000 0.747459 0.882763 -1.762520 16.377300 -0.000001 -0.000001 2.303220 -2.428500 2.014030 6.456720 -0.000001 -0.000000 2.745710 -2.605090 -7.848870 12.994200 -0.242716 4.980390 -89.850700 -0.461601 -72.071200 5.348090 -0.000007 -0.000001 -67.137200 36.487400 -15.157700 24.328600 0.000019 0.000005 1.545610 3.406700 -24.422300 22.291600 -0.000001 0.000005 6.476850 5.469680 -5.358330 12.994500 -0.242716 -4.980390 92.121700 -5.243050 -67.931000 -5.348130 -0.000001 -0.000004 -69.744700 -46.431400 -111.744000 -24.328900 0.000322 -0.000009 6.836540 8.820610 -38.010300 -22.291500 -0.000108 -0.000004 40.711000 5.411680 -3.308300 -2.192480 -6.469440 -0.000000 -175.006000 -7.540580 -2.333880 39.081100 -0.000007 -0.000012 -0.104419 0.245981 23.001300 40.985400 -0.000006 -0.000013 0.099307 4.842640 -65.881700 11.754300 -0.000000 0.000003 -0.000054 -0.000601 -16.600800 -2.192510 6.469440 -0.000001 179.930000 16.521600 -178.881000 -39.081100 -0.002282 -0.040193 0.008191 -0.014149 18.984700 -40.985400 0.000008 0.000006 4.781970 6.671360 -65.703900 -11.754300 -0.000006 -0.000006 -0.008164 -0.089367 -20.212300
0.000000 0.000000 0.000000 0.000000 0.000000 -0.000000 -0.707865 92.377400 -0.982901 87.834400 1.745690 5.024290 15.735700 0.000005 -0.000001 95.429200 85.728600 -96.484300 8.984550 -0.406207 -0.000000 0.747534 0.872610 -2.114230 16.377300 -0.000001 -0.000001 2.287400 -2.147420 1.732230 6.456720 -0.000001 -0.000000 2.745270 -2.298700 -8.146150 12.994200 -0.242716 4.980390 -89.861600 -0.425086 -71.966000 5.348090 -0.000007 -0.000001 -67.062800 36.513600 -14.933800 24.328600 0.000019 0.000005 1.436390 3.015330 -25.485800 22.291600 -0.000001 0.000005 6.552430 5.473140 -5.488110 12.994500 -0.242716 -4.980390 92.201000 -5.433030 -67.906200 -5.348130 -0.000001 -0.000004 -80.656800 -43.502400 -117.508000 -24.328900 0.000322 -0.000009 2.210490 3.551470 -31.896700 -22.291500 -0.000108 -0.000004 40.717500 5.205290 2.552490 -2.192480 -6.469440 -0.000000 -175.034000 -7.196340 -2.439880 39.081100 -0.000007 -0.000012 -0.104043 0.245318 22.982600 40.985400 -0.000006 -0.000013 0.097173 5.019810 -65.815700 11.754300 -0.000000 0.000003 -0.000051 -0.000573 -16.599800 -2.192510 6.469440 -0.000001 179.960000 16.776400 -178.881000 -39.081100 -0.002282 -0.040193 0.012822 -0.027595 18.994000 -40.985400 0.000008 0.000006 5.036930 6.370930 -65.776900 -11.754300 -0.000006 -0.000006 -0.008274 -0.090252 -20.248500
0.000000 0.000000 0.000000 0.000000 0.000000 -0.000000 -0.742020 92.378400 -0.973017 87.831900 1.923450 5.044560 15.735700 0.000005 -0.000001 95.493400 85.715800 -96.651100 8.984550 -0.406207 -0.000000 0.773154 0.890587 -2.319620 16.377300 -0.000001 -0.000001 2.288290 -1.941130 1.592080 6.456720 -0.000001 -0.000000 2.725550 -2.067260 -8.491530 12.994200 -0.242716 4.980390 -89.875200 -0.383160 -71.954100 5.348090 -0.000007 -0.000001 -67.167100 36.640600 -14.510500 24.328600 0.000019 0.000005 1.416870 2.942570 -25.724900 22.291600 -0.000001 0.000005 6.458050 5.475820 -5.589280 12.994500 -0.242716 -4.980390 92.340700 -5.706760 -67.653400 -5.348130 -0.000001 -0.000004 -90.213300 -39.242200 -121.618000 -24.328900 0.000322 -0.000009 -2.987450 -5.055640 -30.621300 -22.291500 -0.000108 -0.000004 45.085200 4.971080 7.884560 -2.192480 -6.469440 -0.000000 -175.002000 -7.144100 -2.445430 39.081100 -0.000007 -0.000012 -0.103949 0.245119 22.980600 40.985400 -0.000006 -0.000013 0.099766 5.156620 -65.798200 11.754300 -0.000000 0.000003 -0.000051 -0.000572 -16.599700 -2.192510 6.469440 -0.000001 -179.993000 16.881400 -178.852000 -39.081100 -0.002282 -0.040193 0.018067 -0.042844 18.990100 -40.985400 0.000008 0.000006 5.186430 6.225620 -65.805500 -11.754300 -0.000006 -0.000006 -0.008159 -0.089324 -20.210600
